<svg viewBox="0 0 125 125" fill="none" xmlns="http://www.w3.org/2000/svg">
<path d="M53.2344 108.664L0 108.664L1.56622e-07 110.455L55.2818 110.455L55.2818 25.9969H53.2344L53.2344 108.664Z" fill="black"/>
<path d="M53.2344 102.665L0 102.665L1.56622e-07 104.457L55.2818 104.457L55.2818 19.9985H53.2344L53.2344 102.665Z" fill="black"/>
<path d="M65.2313 96.6668L11.9969 96.6669V98.4584L67.2788 98.4584L67.2788 14L65.2313 14L65.2313 96.6668Z" fill="black"/>
<path d="M59.2328 108.664L5.99846 108.664V110.455L61.2803 110.455L61.2803 25.9969H59.2328L59.2328 108.664Z" fill="black"/>
<path d="M65.2313 108.664L11.9969 108.664V110.455L67.2788 110.455L67.2788 25.9969H65.2313L65.2313 108.664Z" fill="black"/>
<path d="M96.5913 25.9969C102.307 25.9969 107.255 27.0633 111.435 29.1961C115.701 31.2436 119.028 34.1868 121.417 38.0258C123.806 41.8649 125 46.429 125 51.7183C125 57.0077 123.806 61.5718 121.417 65.4108C119.028 69.2499 115.701 72.2358 111.435 74.3686C107.255 76.416 102.307 77.4398 96.5913 77.4398H77.0123V110.455H66.7749V25.9969H96.5913ZM95.0557 67.8422C101.71 67.8422 106.573 66.4772 109.644 63.7473C112.715 60.932 114.251 56.9223 114.251 51.7183C114.251 46.429 112.715 42.4194 109.644 39.6894C106.573 36.9595 101.71 35.5945 95.0557 35.5945H77.0123V67.8422H95.0557Z" fill="black"/>
</svg>
